<?xml version="1.0" encoding="UTF-8"?>
<!DOCTYPE svg PUBLIC "-//W3C//DTD SVG 1.1//EN" "http://www.w3.org/Graphics/SVG/1.1/DTD/svg11.dtd">
<svg xmlns="http://www.w3.org/2000/svg" version="1.1" width="961px" height="399px" style="shape-rendering:geometricPrecision; text-rendering:geometricPrecision; image-rendering:optimizeQuality; fill-rule:evenodd; clip-rule:evenodd" xmlns:xlink="http://www.w3.org/1999/xlink">
<g><path style="opacity:1" fill="#fefffe" d="M 955.5,-0.5 C 956.833,-0.5 958.167,-0.5 959.5,-0.5C 959.5,0.166667 959.833,0.5 960.5,0.5C 960.5,100.5 960.5,200.5 960.5,300.5C 917.528,305.407 874.528,310.073 831.5,314.5C 830.522,314.023 829.689,313.357 829,312.5C 828.333,212.833 828.333,113.167 829,13.5C 871.233,8.59434 913.4,3.92768 955.5,-0.5 Z M 911.5,49.5 C 912.5,49.5 913.5,49.5 914.5,49.5C 914.5,119.5 914.5,189.5 914.5,259.5C 901.448,260.395 888.448,261.728 875.5,263.5C 875.5,193.5 875.5,123.5 875.5,53.5C 887.727,52.9563 899.727,51.623 911.5,49.5 Z"/></g>
<g><path style="opacity:1" fill="#fefffe" d="M 663.5,27.5 C 666.044,27.1043 668.211,27.771 670,29.5C 670.5,114.499 670.667,199.499 670.5,284.5C 698.473,281.207 726.473,278.207 754.5,275.5C 755.617,290.135 755.783,304.801 755,319.5C 754.612,320.428 753.945,321.095 753,321.5C 709.573,326.529 666.073,330.862 622.5,334.5C 622.333,234.166 622.5,133.833 623,33.5C 636.53,31.1662 650.03,29.1662 663.5,27.5 Z"/></g>
<g><path style="opacity:1" fill="#fefffe" d="M 541.5,39.5 C 544.119,39.2317 546.619,39.565 549,40.5C 549.667,83.8333 549.667,127.167 549,170.5C 536.804,185.025 524.637,199.525 512.5,214C 524.099,213.637 535.599,212.47 547,210.5C 547.667,211.167 548.333,211.833 549,212.5C 549.667,255.5 549.667,298.5 549,341.5C 545.733,343.101 542.233,343.934 538.5,344C 498.132,348.144 457.798,352.144 417.5,356C 416.335,255.237 416.168,154.403 417,53.5C 458.546,48.33 500.046,43.6634 541.5,39.5 Z M 501.5,90.5 C 502.498,117.662 502.831,144.995 502.5,172.5C 489.748,173.176 477.082,174.51 464.5,176.5C 463.167,149.167 463.167,121.833 464.5,94.5C 476.959,93.1609 489.293,91.8275 501.5,90.5 Z M 495.5,219.5 C 497.833,219.5 500.167,219.5 502.5,219.5C 502.5,246.833 502.5,274.167 502.5,301.5C 489.838,303.055 477.171,304.388 464.5,305.5C 463.5,278.175 463.167,250.841 463.5,223.5C 474.367,222.665 485.034,221.331 495.5,219.5 Z"/></g>
<g><path style="opacity:1" fill="#fefffe" d="M 330.5,60.5 C 334.673,59.9564 338.506,60.623 342,62.5C 342.815,160.173 342.648,257.839 341.5,355.5C 341.438,358.613 340.771,361.446 339.5,364C 324.861,365.831 310.194,367.331 295.5,368.5C 295.5,325.833 295.5,283.167 295.5,240.5C 282.184,241.721 268.851,242.721 255.5,243.5C 255.833,286.505 255.5,329.505 254.5,372.5C 240.06,374.616 225.56,376.283 211,377.5C 210.055,377.095 209.388,376.428 209,375.5C 208.333,275.167 208.333,174.833 209,74.5C 210.353,73.2958 212.019,72.6292 214,72.5C 253.013,68.7825 291.846,64.7825 330.5,60.5 Z M 294.5,110.5 C 295.829,137.67 295.829,165.003 294.5,192.5C 281.59,194.564 268.59,195.897 255.5,196.5C 255.5,169.167 255.5,141.833 255.5,114.5C 268.659,113.296 281.659,111.963 294.5,110.5 Z"/></g>
<g><path style="opacity:1" fill="#fefffe" d="M 3.5,398.5 C 2.5,398.5 1.5,398.5 0.5,398.5C 0.5,397.833 0.166667,397.5 -0.5,397.5C -0.5,296.5 -0.5,195.5 -0.5,94.5C 43.4294,89.6192 87.4294,84.9525 131.5,80.5C 132.442,80.6082 133.275,80.9415 134,81.5C 134.667,139.167 134.667,196.833 134,254.5C 105.397,259.095 76.5633,262.429 47.5,264.5C 47.6667,307.168 47.5,349.835 47,392.5C 46.5,393 46,393.5 45.5,394C 31.2933,394.958 17.2933,396.458 3.5,398.5 Z M 79.5,131.5 C 81.8333,131.5 84.1667,131.5 86.5,131.5C 86.5,159.167 86.5,186.833 86.5,214.5C 73.4769,215.224 60.4769,216.224 47.5,217.5C 47.5,190.167 47.5,162.833 47.5,135.5C 58.3674,134.665 69.0341,133.331 79.5,131.5 Z"/></g>
</svg>
