<?xml version="1.0" standalone="no"?>
<!DOCTYPE svg PUBLIC "-//W3C//DTD SVG 20010904//EN"
 "http://www.w3.org/TR/2001/REC-SVG-20010904/DTD/svg10.dtd">
<svg version="1.0" xmlns="http://www.w3.org/2000/svg"
 width="981.000000pt" height="434.000000pt" viewBox="0 0 981.000000 434.000000"
 preserveAspectRatio="xMidYMid meet">
<metadata>
Created by potrace 1.16, written by Peter Selinger 2001-2019
</metadata>
<g transform="translate(0.000000,434.000000) scale(0.100000,-0.100000)"
fill="#000000" stroke="none">
<path d="M9656 4140 c-27 -5 -112 -13 -189 -19 -77 -6 -246 -22 -376 -35 -130
-14 -327 -34 -439 -45 -111 -11 -207 -23 -212 -26 -16 -10 -13 -2992 3 -3002
17 -11 95 -6 402 27 149 16 302 32 340 35 137 12 530 56 548 61 16 5 17 83 15
1507 -3 1494 -3 1502 -23 1503 -11 1 -42 -2 -69 -6z m-366 -1538 l0 -1048
-172 -18 c-95 -10 -183 -20 -195 -23 l-23 -5 0 1049 0 1048 183 21 c100 12
188 22 195 22 9 2 12 -213 12 -1046z"/>
<path d="M6589 3845 c-108 -12 -202 -25 -208 -29 -8 -5 -11 -410 -11 -1512 l0
-1504 38 0 c21 0 73 4 117 10 44 5 134 14 200 20 66 6 226 21 355 35 129 14
318 34 419 44 127 13 186 23 192 32 9 14 8 433 -1 442 -3 3 -63 -1 -135 -8
-71 -8 -247 -26 -390 -40 -143 -14 -272 -28 -287 -31 l-28 -6 0 1274 c0 978
-3 1277 -12 1286 -14 14 -5 15 -249 -13z"/>
<path d="M5285 3718 c-154 -16 -435 -46 -625 -66 l-345 -37 0 -1515 0 -1515
45 2 c25 2 151 14 280 28 287 31 788 82 890 91 123 10 110 -69 110 667 0 419
-4 647 -10 653 -7 7 -62 4 -168 -8 -86 -10 -166 -17 -176 -15 -16 2 -3 21 64
102 46 55 94 111 106 125 12 14 58 67 103 118 l81 94 -2 651 -3 652 -35 2
c-19 0 -161 -12 -315 -29z m-115 -887 l0 -409 -72 -6 c-145 -13 -273 -27 -295
-32 l-23 -4 0 410 c0 225 1 411 3 411 1 1 88 9 192 19 105 9 191 18 193 19 1
0 2 -183 2 -408z m0 -1290 l0 -408 -37 -6 c-52 -8 -225 -26 -295 -30 l-58 -4
0 409 0 408 23 1 c12 0 85 9 162 18 77 10 155 19 173 20 l32 1 0 -409z"/>
<path d="M3295 3520 c-88 -10 -218 -23 -290 -29 -71 -7 -229 -23 -350 -36
-121 -13 -263 -27 -315 -30 -54 -4 -98 -12 -102 -18 -10 -16 -10 -3009 0
-3023 5 -8 37 -9 112 -3 125 10 296 28 328 35 l22 4 0 644 0 643 148 12 c81 7
171 15 200 18 l52 6 0 -642 0 -641 28 0 c60 2 422 46 429 54 9 9 17 2968 8
3003 -5 20 -11 23 -58 22 -28 -1 -124 -9 -212 -19z m-200 -1299 c-7 -6 -295
-40 -352 -40 l-43 -1 0 409 0 408 113 13 c61 7 150 16 197 19 l85 6 3 -404 c1
-222 0 -407 -3 -410z"/>
<path d="M1380 3330 c-36 -5 -121 -14 -190 -20 -69 -6 -251 -24 -405 -40 -154
-16 -359 -36 -455 -45 -96 -9 -178 -20 -183 -24 -4 -4 -6 -689 -5 -1522 l3
-1514 25 1 c139 9 428 39 437 47 10 7 13 149 13 647 l0 637 48 7 c26 3 103 11
172 16 225 18 631 67 641 77 5 5 8 339 7 874 -3 856 -3 864 -23 865 -11 1 -49
-2 -85 -6z m-370 -913 l0 -414 -147 -12 c-82 -6 -169 -14 -195 -18 l-48 -6 0
412 0 411 23 1 c12 0 85 9 162 18 77 10 155 19 173 20 l32 1 0 -413z"/>
</g>
</svg>
